<svg xmlns="http://www.w3.org/2000/svg" viewBox="0 0 15.24 11.1"><defs><style>.cls-1{fill:#008fca;}.cls-2{fill:#fff;opacity:0.16;}</style></defs><title>FAV_Bleu</title><g id="Calque_2" data-name="Calque 2"><g id="Calque_1-2" data-name="Calque 1"><path class="cls-1" d="M15.24,7.09a4,4,0,0,1-4,4H5.13c-1.87,0-2.7-1.16-2.58-2.39A3.32,3.32,0,0,1,5.28,6a6.78,6.78,0,0,1,3.59.24l.07,0h0v0A2.45,2.45,0,0,0,6.86,4.75C5.4,2.21,2.76,3,1.21,3.52.12,3.85-.42,4,.39,2.68l.06-.1A5.54,5.54,0,0,1,9,1.61a2.21,2.21,0,0,1,3,1.55,4,4,0,0,1,3.16,3.92Z"/><path class="cls-1" d="M5.05,4.3a.24.24,0,0,1-.24.24c-.21,0-.35-.42-1-.27C4.1,4.09,5.05,3.8,5.05,4.3Z"/><path class="cls-2" d="M5.05,4.3a.24.24,0,0,1-.24.24c-.21,0-.35-.42-1-.27C4.1,4.09,5.05,3.8,5.05,4.3Z"/><path class="cls-2" d="M8.87,6.23a8.93,8.93,0,0,1-1.2.08A8.85,8.85,0,0,1,5.28,6,6.78,6.78,0,0,1,8.87,6.23Z"/><path class="cls-2" d="M13.71,3.93A8.82,8.82,0,0,1,9,6.21h0A2.45,2.45,0,0,0,6.86,4.75C5.4,2.21,2.76,3,1.21,3.52a8.79,8.79,0,0,1-.77-.94A5.54,5.54,0,0,1,9,1.61a2.21,2.21,0,0,1,3,1.55A4,4,0,0,1,13.71,3.93Z"/><path class="cls-2" d="M4.82,4.53c-.21,0-.35-.42-1-.27.27-.17,1.23-.47,1.23,0A.24.24,0,0,1,4.82,4.53Z"/><path class="cls-2" d="M11.4,2A8.84,8.84,0,0,1,9,6.21l0,0h0A8.82,8.82,0,0,1,2.81,8.72H2.55A3.32,3.32,0,0,1,5.28,6a6.78,6.78,0,0,1,3.59.24h.07A2.45,2.45,0,0,0,6.86,4.75C5.4,2.21,2.76,3,1.21,3.52.12,3.85-.42,4,.39,2.68l.06-.1A5.54,5.54,0,0,1,9,1.61,2.2,2.2,0,0,1,11.4,2Z"/></g></g></svg>