<svg width="44" height="29" viewBox="0 0 44 29" fill="none" xmlns="http://www.w3.org/2000/svg">
<path d="M42.5163 28.0453H37.4837C37.159 28.0453 36.8958 27.7821 36.8958 27.4574V12.1382C36.8958 10.5092 38.221 9.18426 39.8497 9.18426H40.1501C41.779 9.18426 43.104 10.5094 43.104 12.1382V27.4574C43.1042 27.7821 42.841 28.0453 42.5163 28.0453ZM38.0716 26.8694H41.9284V12.1382C41.9284 11.1577 41.1308 10.3601 40.1503 10.3601H39.8499C38.8694 10.3601 38.0718 11.1577 38.0718 12.1382L38.0716 26.8694ZM40 8.0002C37.7943 8.0002 36 6.20567 36 4C36 1.79433 37.7943 0 40 0C42.2057 0 44 1.79433 44 4C44 6.20567 42.2057 8.0002 40 8.0002ZM40 1.17584C38.4428 1.17584 37.1758 2.4426 37.1758 4C37.1758 5.5574 38.4428 6.82436 40 6.82436C41.5572 6.82436 42.8242 5.5574 42.8242 4C42.8242 2.4426 41.5572 1.17584 40 1.17584Z" fill="#6E6E6E" fill-opacity="0.5"/>
<path d="M33.5163 28.0453H28.4837C28.159 28.0453 27.8958 27.7821 27.8958 27.4574V12.1382C27.8958 10.5092 29.221 9.18426 30.8497 9.18426H31.1501C32.779 9.18426 34.104 10.5094 34.104 12.1382V27.4574C34.1042 27.7821 33.841 28.0453 33.5163 28.0453ZM29.0716 26.8694H32.9284V12.1382C32.9284 11.1577 32.1308 10.3601 31.1503 10.3601H30.8499C29.8694 10.3601 29.0718 11.1577 29.0718 12.1382L29.0716 26.8694ZM31 8.0002C28.7943 8.0002 27 6.20567 27 4C27 1.79433 28.7943 0 31 0C33.2057 0 35 1.79433 35 4C35 6.20567 33.2057 8.0002 31 8.0002ZM31 1.17584C29.4428 1.17584 28.1758 2.4426 28.1758 4C28.1758 5.5574 29.4428 6.82436 31 6.82436C32.5572 6.82436 33.8242 5.5574 33.8242 4C33.8242 2.4426 32.5572 1.17584 31 1.17584Z" fill="#6E6E6E" fill-opacity="0.5"/>
<path d="M24.5163 28.0453H19.4837C19.159 28.0453 18.8958 27.7821 18.8958 27.4574V12.1382C18.8958 10.5092 20.221 9.18426 21.8497 9.18426H22.1501C23.779 9.18426 25.104 10.5094 25.104 12.1382V27.4574C25.1042 27.7821 24.841 28.0453 24.5163 28.0453ZM20.0716 26.8694H23.9284V12.1382C23.9284 11.1577 23.1308 10.3601 22.1503 10.3601H21.8499C20.8694 10.3601 20.0718 11.1577 20.0718 12.1382L20.0716 26.8694ZM22 8.0002C19.7943 8.0002 18 6.20567 18 4C18 1.79433 19.7943 0 22 0C24.2057 0 26 1.79433 26 4C26 6.20567 24.2057 8.0002 22 8.0002ZM22 1.17584C20.4428 1.17584 19.1758 2.4426 19.1758 4C19.1758 5.5574 20.4428 6.82436 22 6.82436C23.5572 6.82436 24.8242 5.5574 24.8242 4C24.8242 2.4426 23.5572 1.17584 22 1.17584Z" fill="#6E6E6E" fill-opacity="0.5"/>
<path d="M15.5163 28.0453H10.4837C10.159 28.0453 9.89579 27.7821 9.89579 27.4574V12.1382C9.89579 10.5092 11.221 9.18426 12.8497 9.18426H13.1501C14.779 9.18426 16.104 10.5094 16.104 12.1382V27.4574C16.1042 27.7821 15.841 28.0453 15.5163 28.0453ZM11.0716 26.8694H14.9284V12.1382C14.9284 11.1577 14.1308 10.3601 13.1503 10.3601H12.8499C11.8694 10.3601 11.0718 11.1577 11.0718 12.1382L11.0716 26.8694ZM13 8.0002C10.7943 8.0002 9 6.20567 9 4C9 1.79433 10.7943 0 13 0C15.2057 0 17 1.79433 17 4C17 6.20567 15.2057 8.0002 13 8.0002ZM13 1.17584C11.4428 1.17584 10.1758 2.4426 10.1758 4C10.1758 5.5574 11.4428 6.82436 13 6.82436C14.5572 6.82436 15.8242 5.5574 15.8242 4C15.8242 2.4426 14.5572 1.17584 13 1.17584Z" fill="#6E6E6E" fill-opacity="0.5"/>
<path d="M6.51629 28.0453H1.48371C1.15898 28.0453 0.895792 27.7821 0.895792 27.4574V12.1382C0.895792 10.5092 2.22096 9.18426 3.84969 9.18426H4.15012C5.77904 9.18426 7.10401 10.5094 7.10401 12.1382V27.4574C7.10421 27.7821 6.84102 28.0453 6.51629 28.0453ZM2.07163 26.8694H5.92837V12.1382C5.92837 11.1577 5.13076 10.3601 4.15031 10.3601H3.84989C2.86943 10.3601 2.07182 11.1577 2.07182 12.1382L2.07163 26.8694ZM4 8.0002C1.79433 8.0002 0 6.20567 0 4C0 1.79433 1.79433 0 4 0C6.20567 0 8 1.79433 8 4C8 6.20567 6.20567 8.0002 4 8.0002ZM4 1.17584C2.4428 1.17584 1.17584 2.4426 1.17584 4C1.17584 5.5574 2.4428 6.82436 4 6.82436C5.5572 6.82436 6.82416 5.5574 6.82416 4C6.82416 2.4426 5.5572 1.17584 4 1.17584Z" fill="#6E6E6E" fill-opacity="0.5"/>
</svg>
