<svg width="329" height="43" viewBox="0 0 329 43" fill="none" xmlns="http://www.w3.org/2000/svg">
<path d="M0.998444 31.1248V42.5004L328.999 42.5005L328.998 31.1248C328.996 29.0733 327.565 27.1062 325.021 25.6555C322.477 24.2049 319.027 23.3893 315.428 23.3877C319.021 23.3878 322.466 22.5757 325.01 21.1296C327.554 19.6836 328.988 17.7215 328.998 15.6734V0.499889L0.998444 0.499889V15.6734C0.997131 16.6892 1.34689 17.6952 2.02777 18.6339C2.70865 19.5725 3.70724 20.4255 4.96655 21.144C6.22586 21.8626 7.72113 22.4326 9.36694 22.8215C11.0128 23.2104 12.7769 23.4105 14.5584 23.4105C10.9681 23.412 7.52515 24.2247 4.98358 25.6706C2.44202 27.1165 1.00903 29.0778 0.998444 31.1248Z" fill="white"/>
<path d="M7.9469 27.0007C8.72781 27.0007 9.49118 26.7955 10.1405 26.4109C10.7898 26.0263 11.2958 25.4796 11.5946 24.8401C11.8935 24.2006 11.9717 23.4968 11.8193 22.8179C11.667 22.139 11.2909 21.5153 10.7387 21.0259C10.1866 20.5364 9.48306 20.203 8.71716 20.068C7.95126 19.9329 7.15738 20.0023 6.43591 20.2672C5.71445 20.5321 5.09781 20.9807 4.66397 21.5562C4.23013 22.1318 3.99854 22.8085 3.99854 23.5008C3.99854 24.429 4.41455 25.3192 5.155 25.9756C5.89545 26.632 6.89975 27.0007 7.9469 27.0007ZM27.5158 27.0007C28.2968 27.0007 29.0601 26.7955 29.7094 26.4109C30.3587 26.0263 30.8648 25.4796 31.1636 24.8401C31.4624 24.2006 31.5406 23.4968 31.3883 22.8179C31.2359 22.139 30.8599 21.5153 30.3077 21.0259C29.7555 20.5364 29.052 20.203 28.2861 20.068C27.5202 19.9329 26.7263 20.0023 26.0049 20.2672C25.2834 20.5321 24.6667 20.9807 24.2329 21.5562C23.7991 22.1318 23.5675 22.8085 23.5675 23.5008C23.5704 24.4212 23.981 25.3038 24.7109 25.9584C25.4408 26.613 26.4316 26.9874 27.4698 27.0007H27.5158ZM47.0848 27.0007C47.8657 27.0007 48.6291 26.7955 49.2784 26.4109C49.9277 26.0263 50.4337 25.4796 50.7325 24.8401C51.0314 24.2006 51.1096 23.4968 50.9572 22.8179C50.8049 22.139 50.4289 21.5153 49.8767 21.0259C49.3245 20.5364 48.621 20.203 47.8551 20.068C47.0892 19.9329 46.2953 20.0023 45.5738 20.2672C44.8524 20.5321 44.2357 20.9807 43.8019 21.5562C43.368 22.1318 43.1364 22.8085 43.1364 23.5008C43.1391 24.4143 43.5434 25.2908 44.2634 25.9443C44.9835 26.5978 45.9626 26.9768 46.9927 27.0007H47.0848ZM66.6537 27.0007C67.4341 26.9987 68.1964 26.7917 68.8442 26.4059C69.492 26.0201 69.9962 25.4728 70.2933 24.8331C70.5904 24.1933 70.6669 23.4899 70.5133 22.8117C70.3596 22.1334 69.9827 21.5108 69.4301 21.0223C68.8774 20.5338 68.1739 20.2015 67.4083 20.0673C66.6427 19.9331 65.8494 20.003 65.1286 20.2682C64.4078 20.5334 63.7919 20.982 63.3585 21.5573C62.9252 22.1326 62.6939 22.809 62.6939 23.5008C62.6964 24.4108 63.0974 25.2845 63.8126 25.9374C64.5277 26.5904 65.501 26.9716 66.5271 27.0007H66.6537ZM86.2227 27.0007C87.0036 27.0007 87.767 26.7955 88.4163 26.4109C89.0656 26.0263 89.5716 25.4796 89.8705 24.8401C90.1693 24.2006 90.2475 23.4968 90.0952 22.8179C89.9428 22.139 89.5668 21.5153 89.0146 21.0259C88.4624 20.5364 87.7589 20.203 86.993 20.068C86.2271 19.9329 85.4332 20.0023 84.7118 20.2672C83.9903 20.5321 83.3737 20.9807 82.9398 21.5562C82.506 22.1318 82.2744 22.8085 82.2744 23.5008C82.2734 24.4031 82.6656 25.2709 83.3691 25.923C84.0726 26.5752 85.0331 26.9613 86.05 27.0007H86.2227ZM105.792 27.0007C106.573 27.0007 107.336 26.7955 107.985 26.4109C108.635 26.0263 109.141 25.4796 109.439 24.8401C109.738 24.2006 109.816 23.4968 109.664 22.8179C109.512 22.139 109.136 21.5153 108.584 21.0259C108.031 20.5364 107.328 20.203 106.562 20.068C105.796 19.9329 105.002 20.0023 104.281 20.2672C103.559 20.5321 102.943 20.9807 102.509 21.5562C102.075 22.1318 101.843 22.8085 101.843 23.5008C101.842 24.3964 102.228 25.2584 102.921 25.9095C103.615 26.5606 104.564 26.9511 105.573 27.0007H105.792ZM125.361 27.0007C126.142 27.0007 126.905 26.7955 127.554 26.4109C128.203 26.0263 128.71 25.4796 129.008 24.8401C129.307 24.2006 129.385 23.4968 129.233 22.8179C129.081 22.139 128.705 21.5153 128.153 21.0259C127.6 20.5364 126.897 20.203 126.131 20.068C125.365 19.9329 124.571 20.0023 123.85 20.2672C123.128 20.5321 122.512 20.9807 122.078 21.5562C121.644 22.1318 121.412 22.8085 121.412 23.5008C121.413 24.389 121.793 25.2441 122.477 25.8936C123.16 26.5431 124.096 26.9388 125.096 27.0007H125.361ZM144.93 27.0007C145.71 26.9987 146.472 26.7917 147.12 26.4059C147.768 26.0201 148.272 25.4728 148.569 24.8331C148.866 24.1933 148.943 23.4899 148.789 22.8117C148.635 22.1334 148.259 21.5108 147.706 21.0223C147.153 20.5338 146.45 20.2015 145.684 20.0673C144.919 19.9331 144.125 20.003 143.404 20.2682C142.684 20.5334 142.068 20.982 141.634 21.5573C141.201 22.1326 140.97 22.809 140.97 23.5008C140.969 24.3809 141.341 25.2291 142.013 25.8773C142.685 26.5256 143.606 26.9265 144.596 27.0007H144.93ZM164.499 27.0007C165.279 26.9987 166.041 26.7917 166.689 26.4059C167.337 26.0201 167.841 25.4728 168.138 24.8331C168.435 24.1933 168.512 23.4899 168.358 22.8117C168.204 22.1334 167.827 21.5108 167.275 21.0223C166.722 20.5338 166.019 20.2015 165.253 20.0673C164.488 19.9331 163.694 20.003 162.973 20.2682C162.253 20.5334 161.637 20.982 161.203 21.5573C160.77 22.1326 160.539 22.809 160.539 23.5008C160.538 24.3809 160.91 25.2291 161.582 25.8773C162.254 26.5256 163.175 26.9265 164.165 27.0007H164.499ZM184.067 27.0007C184.848 27.0007 185.612 26.7955 186.261 26.4109C186.91 26.0263 187.416 25.4796 187.715 24.8401C188.014 24.2006 188.092 23.4968 187.94 22.8179C187.788 22.139 187.412 21.5153 186.859 21.0259C186.307 20.5364 185.604 20.203 184.838 20.068C184.072 19.9329 183.278 20.0023 182.557 20.2672C181.835 20.5321 181.218 20.9807 180.785 21.5562C180.351 22.1318 180.119 22.8085 180.119 23.5008C180.114 24.3719 180.476 25.2133 181.134 25.8606C181.792 26.5078 182.698 26.9144 183.676 27.0007H184.067ZM203.636 27.0007C204.417 27.0007 205.181 26.7955 205.83 26.4109C206.479 26.0263 206.985 25.4796 207.284 24.8401C207.583 24.2006 207.661 23.4968 207.509 22.8179C207.357 22.139 206.981 21.5153 206.428 21.0259C205.876 20.5364 205.173 20.203 204.407 20.068C203.641 19.9329 202.847 20.0023 202.126 20.2672C201.404 20.5321 200.787 20.9807 200.354 21.5562C199.92 22.1318 199.688 22.8085 199.688 23.5008C199.682 24.3656 200.038 25.2017 200.686 25.848C201.334 26.4943 202.229 26.9049 203.199 27.0007H203.636ZM223.205 27.0007C223.986 26.9987 224.748 26.7917 225.396 26.4059C226.044 26.0201 226.548 25.4728 226.845 24.8331C227.142 24.1933 227.219 23.4899 227.065 22.8117C226.911 22.1334 226.534 21.5108 225.982 21.0223C225.429 20.5338 224.726 20.2015 223.96 20.0673C223.194 19.9331 222.401 20.003 221.68 20.2682C220.96 20.5334 220.344 20.982 219.91 21.5573C219.477 22.1326 219.246 22.809 219.246 23.5008C219.241 24.3618 219.595 25.1942 220.238 25.8395C220.881 26.4848 221.769 26.8981 222.733 27.0007H223.205ZM242.774 27.0007C243.555 26.9987 244.317 26.7917 244.965 26.4059C245.613 26.0201 246.117 25.4728 246.414 24.8331C246.711 24.1933 246.788 23.4899 246.634 22.8117C246.48 22.1334 246.103 21.5108 245.551 21.0223C244.998 20.5338 244.295 20.2015 243.529 20.0673C242.763 19.9331 241.97 20.003 241.249 20.2682C240.528 20.5334 239.913 20.982 239.479 21.5573C239.046 22.1326 238.815 22.809 238.815 23.5008C238.809 24.3556 239.156 25.1828 239.789 25.8272C240.423 26.4716 241.3 26.8889 242.256 27.0007H242.774ZM262.343 27.0007C263.124 27.0007 263.888 26.7955 264.537 26.4109C265.186 26.0263 265.692 25.4796 265.991 24.8401C266.29 24.2006 266.368 23.4968 266.216 22.8179C266.063 22.139 265.687 21.5153 265.135 21.0259C264.583 20.5364 263.88 20.203 263.114 20.068C262.348 19.9329 261.554 20.0023 260.832 20.2672C260.111 20.5321 259.494 20.9807 259.06 21.5562C258.627 22.1318 258.395 22.8085 258.395 23.5008C258.385 24.3485 258.723 25.1706 259.345 25.8144C259.968 26.4581 260.833 26.8797 261.779 27.0007H262.343ZM281.912 27.0007C282.693 27.0007 283.457 26.7955 284.106 26.4109C284.755 26.0263 285.261 25.4796 285.56 24.8401C285.859 24.2006 285.937 23.4968 285.785 22.8179C285.632 22.139 285.256 21.5153 284.704 21.0259C284.152 20.5364 283.448 20.203 282.683 20.068C281.917 19.9329 281.123 20.0023 280.401 20.2672C279.68 20.5321 279.063 20.9807 278.629 21.5562C278.196 22.1318 277.964 22.8085 277.964 23.5008C277.955 24.3419 278.287 25.158 278.9 25.8003C279.512 26.4427 280.365 26.8687 281.302 27.0007H281.912ZM301.481 27.0007C302.262 27.0007 303.026 26.7955 303.675 26.4109C304.324 26.0263 304.83 25.4796 305.129 24.8401C305.428 24.2006 305.506 23.4968 305.354 22.8179C305.201 22.139 304.825 21.5153 304.273 21.0259C303.721 20.5364 303.017 20.203 302.252 20.068C301.486 19.9329 300.692 20.0023 299.97 20.2672C299.249 20.5321 298.632 20.9807 298.198 21.5562C297.764 22.1318 297.533 22.8085 297.533 23.5008C297.522 24.336 297.848 25.1472 298.451 25.7887C299.055 26.4302 299.896 26.86 300.825 27.0007H301.481ZM321.05 27.0007C321.831 27.0007 322.594 26.7955 323.244 26.4109C323.893 26.0263 324.399 25.4796 324.698 24.8401C324.997 24.2006 325.075 23.4968 324.923 22.8179C324.77 22.139 324.394 21.5153 323.842 21.0259C323.29 20.5364 322.586 20.203 321.82 20.068C321.055 19.9329 320.261 20.0023 319.539 20.2672C318.818 20.5321 318.201 20.9807 317.767 21.5562C317.333 22.1318 317.102 22.8085 317.102 23.5008C317.089 24.3301 317.408 25.1365 318.003 25.7772C318.597 26.4178 319.428 26.8513 320.348 27.0007H321.05Z" fill="#004579"/>
</svg>
