<svg xmlns="http://www.w3.org/2000/svg" viewBox="0 0 410.32 96"><defs><style>.cls-1{fill:#fff;}</style></defs><title>Fichier 2</title><g id="Calque_2" data-name="Calque 2"><g id="Calque_1-2" data-name="Calque 1"><path class="cls-1" d="M410.32,24V0H0V24A24,24,0,0,0,16.12,46.67a8,8,0,1,1,0,2.66A24,24,0,0,0,0,72V96H410.32V72a24,24,0,0,0-15.64-22.5,8,8,0,1,1,0-3A24,24,0,0,0,410.32,24ZM57,56a8,8,0,1,1,8-8A8,8,0,0,1,57,56Zm33,0a8,8,0,1,1,8-8A8,8,0,0,1,90,56Zm33,0a8,8,0,1,1,8-8A8,8,0,0,1,123,56Zm33,0a8,8,0,1,1,8-8A8,8,0,0,1,155.94,56Zm33,0a8,8,0,1,1,8-8A8,8,0,0,1,188.92,56Zm33,0a8,8,0,1,1,8-8A8,8,0,0,1,221.9,56Zm33,0a8,8,0,1,1,8-8A8,8,0,0,1,254.89,56Zm33,0a8,8,0,1,1,8-8A8,8,0,0,1,287.87,56Zm33,0a8,8,0,1,1,8-8A8,8,0,0,1,320.86,56Zm33,0a8,8,0,1,1,8-8A8,8,0,0,1,353.84,56Z"/></g></g></svg>